<mxfile host="65bd71144e">
    <diagram id="5Mc87XqJYEqGW-BKYJaH" name="Page-1">
        <mxGraphModel dx="746" dy="593" grid="1" gridSize="10" guides="1" tooltips="1" connect="1" arrows="1" fold="1" page="1" pageScale="1" pageWidth="850" pageHeight="1100" math="0" shadow="0">
            <root>
                <mxCell id="0"/>
                <mxCell id="1" parent="0"/>
                <mxCell id="20" value="" style="group" vertex="1" connectable="0" parent="1">
                    <mxGeometry x="150" y="100" width="330" height="280" as="geometry"/>
                </mxCell>
                <mxCell id="2" value="Mysql数据库" style="shape=datastore;whiteSpace=wrap;html=1;" parent="20" vertex="1">
                    <mxGeometry x="225" y="150" width="90" height="110" as="geometry"/>
                </mxCell>
                <mxCell id="3" value="CC2530" style="rounded=0;whiteSpace=wrap;html=1;" parent="20" vertex="1">
                    <mxGeometry width="120" height="60" as="geometry"/>
                </mxCell>
                <mxCell id="4" value="Python后端" style="rounded=0;whiteSpace=wrap;html=1;" parent="20" vertex="1">
                    <mxGeometry x="210" width="120" height="60" as="geometry"/>
                </mxCell>
                <mxCell id="11" value="串口通信" style="shape=flexArrow;endArrow=classic;startArrow=classic;html=1;exitX=1;exitY=0.5;exitDx=0;exitDy=0;entryX=0;entryY=0.5;entryDx=0;entryDy=0;" parent="20" source="3" target="4" edge="1">
                    <mxGeometry width="100" height="100" relative="1" as="geometry">
                        <mxPoint x="170" y="200" as="sourcePoint"/>
                        <mxPoint x="270" y="100" as="targetPoint"/>
                    </mxGeometry>
                </mxCell>
                <mxCell id="12" value="RFID" style="rounded=0;whiteSpace=wrap;html=1;" parent="20" vertex="1">
                    <mxGeometry x="20" y="170" width="80" height="40" as="geometry"/>
                </mxCell>
                <mxCell id="13" value="" style="shape=flexArrow;endArrow=classic;startArrow=classic;html=1;entryX=0.5;entryY=1;entryDx=0;entryDy=0;exitX=0.5;exitY=0;exitDx=0;exitDy=0;" parent="20" source="12" target="3" edge="1">
                    <mxGeometry width="100" height="100" relative="1" as="geometry">
                        <mxPoint x="130" y="150" as="sourcePoint"/>
                        <mxPoint x="230" y="50" as="targetPoint"/>
                    </mxGeometry>
                </mxCell>
                <mxCell id="15" value="GPIO" style="edgeLabel;html=1;align=center;verticalAlign=middle;resizable=0;points=[];" parent="13" vertex="1" connectable="0">
                    <mxGeometry x="-0.0061" relative="1" as="geometry">
                        <mxPoint as="offset"/>
                    </mxGeometry>
                </mxCell>
                <mxCell id="14" value="PyMysql库" style="shape=flexArrow;endArrow=classic;startArrow=classic;html=1;entryX=0.5;entryY=1;entryDx=0;entryDy=0;exitX=0.5;exitY=0;exitDx=0;exitDy=0;" parent="20" source="2" target="4" edge="1">
                    <mxGeometry width="100" height="100" relative="1" as="geometry">
                        <mxPoint x="130" y="150" as="sourcePoint"/>
                        <mxPoint x="230" y="50" as="targetPoint"/>
                        <mxPoint as="offset"/>
                    </mxGeometry>
                </mxCell>
                <mxCell id="19" style="edgeStyle=none;html=1;exitX=0;exitY=0;exitDx=0;exitDy=0;entryX=1;entryY=1;entryDx=0;entryDy=0;" parent="20" source="18" target="12" edge="1">
                    <mxGeometry relative="1" as="geometry"/>
                </mxCell>
                <mxCell id="18" value="IC卡" style="shape=ext;double=1;rounded=1;whiteSpace=wrap;html=1;" parent="20" vertex="1">
                    <mxGeometry x="110" y="240" width="70" height="40" as="geometry"/>
                </mxCell>
            </root>
        </mxGraphModel>
    </diagram>
</mxfile>